<svg version="1" xmlns="http://www.w3.org/2000/svg" width="1066.667" height="1066.667" viewBox="0 0 800.000000 800.000000"><path d="M127.4 235.1c-5 2.8-91.5 89.8-94.1 94.7-1.3 2.4-1.9 4.1-1.4 3.8.5-.3 1.1.7 1.4 2.3.9 4.3 225.1 228.3 230.1 229.8 2 .6 3.8.7 4.1.2.3-.4 1.1-.6 1.8-.4.7.3 30.3-28.6 66-64.2l64.7-64.8 64.7 64.7c69.2 69.2 66.9 67.2 73.5 64 4-1.9 228.8-227 228.8-229.1 0-.9.6-2.3 1.3-3 .7-.8.7-1.1.1-.8-.7.4-1.4-.5-1.7-2.2-.8-3.7-91.9-95.1-94.8-95.1-1.1 0-1.8-.4-1.4-.9.3-.6-.4-.9-1.5-.8-1.1.1-2 .5-2 .9s-.9.8-2.1.8c-1.4 0-22.6 20.4-66 63.7-35.2 35.1-64.2 64-64.4 64.2-.2.2-29-28.2-63.9-63-35-34.9-64.7-63.9-66.1-64.5-1.4-.5-2.3-1.2-2.1-1.5.3-.3-.5-.6-1.7-.6-1.2-.1-2.4.1-2.7.5-.3.4-1.5 1.2-2.8 1.7-1.2.6-30.8 29.5-65.8 64.4-34.9 34.8-63.7 63.2-63.9 63-.2-.2-29.2-29.1-64.4-64.2-43.5-43.3-64.6-63.7-66-63.7-1.2 0-2.1-.4-2.1-.8 0-1.4-2.3-1-5.6.9z"/></svg>